<svg xmlns="http://www.w3.org/2000/svg" viewBox="0 0 64 64"><defs><style>.cls-1{fill:#000842;}.cls-2{fill:#fff;}.cls-3{fill:#f6ae2d;}</style></defs><title>Zeichenfläche 1</title><g id="Ebene_1" data-name="Ebene 1"><rect class="cls-1" width="64" height="64"/></g><g id="checkfaluploads"><path class="cls-2" d="M45.78,56H13.52A3.73,3.73,0,0,1,9.8,52.28V30a3.72,3.72,0,0,1,3.72-3.72H45.78A3.72,3.72,0,0,1,49.5,30V52.28A3.73,3.73,0,0,1,45.78,56ZM16.49,31.57a4.34,4.34,0,1,0,4.34,4.34A4.34,4.34,0,0,0,16.49,31.57ZM14.77,51H44.54V42.35l-6.79-4.78a.93.93,0,0,0-1.31,0L25.93,46.08l-4.3-4.31a.94.94,0,0,0-1.32,0l-5.54,5.55Z"/><path class="cls-3" d="M30.15,36.33a2.81,2.81,0,0,1-2-.84L16,23.35a2.87,2.87,0,0,1,0-4.06l2.65-2.64a2.86,2.86,0,0,1,4.05,0l7.48,7.47L47,7.31a2.87,2.87,0,0,1,4.06,0L53.66,10a2.87,2.87,0,0,1,0,4.06L32.17,35.49A2.8,2.8,0,0,1,30.15,36.33Z"/><path class="cls-1" d="M49,7.47A1.83,1.83,0,0,1,50.31,8L53,10.66a1.86,1.86,0,0,1,0,2.64L31.47,34.79a1.9,1.9,0,0,1-2.65,0L16.68,22.64a1.86,1.86,0,0,1,0-2.64l2.64-2.64a1.86,1.86,0,0,1,1.32-.55,1.83,1.83,0,0,1,1.32.55l8.19,8.18L47.67,8A1.83,1.83,0,0,1,49,7.47m0-2A3.86,3.86,0,0,0,46.25,6.6L30.15,22.71l-6.77-6.77a3.87,3.87,0,0,0-5.47,0l-2.64,2.65a3.87,3.87,0,0,0,0,5.47L27.41,36.2a3.87,3.87,0,0,0,5.47,0L54.37,14.71a3.87,3.87,0,0,0,0-5.47L51.72,6.6A3.83,3.83,0,0,0,49,5.47Z"/></g></svg>